<svg xmlns="http://www.w3.org/2000/svg" viewBox="0 0 36 36">
  <path fill="#0866FF" d="M18 0C8.06 0 0 8.06 0 18c0 9.94 8.06 18 18 18 9.94 0 18-8.06 18-18C36 8.06 27.94 0 18 0zm8.86 24.87c-1.03 1.64-2.17 2.46-3.35 2.46-1.18 0-2.35-.96-3.9-3.17-.93-1.33-1.9-2.9-2.84-4.4l-.05-.08c-.87-1.37-1.68-2.63-2.45-3.57-.93-1.14-1.56-1.55-2.08-1.55-.8 0-1.63 1.06-2.2 2.82-.34 1.05-.53 2.24-.53 3.49 0 2.05.62 3.07 1.2 3.07.36 0 .82-.38 1.42-1.21l.33.23c-.97 1.44-1.97 2.17-2.87 2.17-1.26 0-2.04-1.44-2.04-3.87 0-2.1.42-4.33 1.16-5.87.85-1.78 2.05-2.76 3.38-2.76 1.07 0 2.15.73 3.36 2.26.74.94 1.52 2.14 2.33 3.44l.05.08c1.26 2.01 2.31 3.54 3.15 4.59 1.04 1.31 1.66 1.66 2.2 1.66.68 0 1.32-.73 1.8-2.04.38-1.04.6-2.33.6-3.63 0-1.7-.35-2.81-1.02-3.34-.42-.33-.98-.47-1.74-.47h-.35l.08-.37c.83-.13 1.41-.18 1.93-.18 2.34 0 3.56 1.4 3.56 4.08 0 2.24-.48 4.52-1.47 6.1z"/>
</svg>
