<svg xmlns="http://www.w3.org/2000/svg" viewBox="0 0 100 100">
  <defs>
    <linearGradient id="metaGrad" x1="0%" y1="0%" x2="100%" y2="100%">
      <stop offset="0%" style="stop-color:#0081FB"/>
      <stop offset="25%" style="stop-color:#0064E0"/>
      <stop offset="50%" style="stop-color:#0082FB"/>
      <stop offset="75%" style="stop-color:#00A1FF"/>
      <stop offset="100%" style="stop-color:#0064E0"/>
    </linearGradient>
  </defs>
  <path fill="url(#metaGrad)" d="M17.2,50c0-10.8,3.9-20.4,8.4-20.4c2.6,0,5.3,3.2,10.4,10.8c4.1,6.1,8.9,14.3,14,21.8c6.8,10.1,12.9,17.8,20.3,17.8c13.2,0,21.2-16.1,21.2-32c0-19.2-8.8-30-24.5-30c-9.1,0-17.7,5.9-25,15.4c-6.7-9.1-14.6-15.4-24.2-15.4C7.6,18,0,32.4,0,50c0,17.6,7.6,32,17.8,32c9.6,0,17.5-6.3,24.2-15.4c7.3,9.5,15.9,15.4,25,15.4c15.7,0,24.5-10.8,24.5-30c0-15.9-8-32-21.2-32c-7.4,0-13.5,7.7-20.3,17.8c-5.1,7.5-9.9,15.7-14,21.8c-5.1,7.6-7.8,10.8-10.4,10.8C21.1,70.4,17.2,60.8,17.2,50z"/>
</svg>
